<svg viewBox="0 0 1200 630" xmlns="http://www.w3.org/2000/svg">
  <defs>
    <linearGradient id="g1" x1="0" y1="0" x2="1" y2="1">
      <stop offset="0" stop-color="#06070e"/>
      <stop offset="0.55" stop-color="#11142a"/>
      <stop offset="1" stop-color="#06070e"/>
    </linearGradient>
    <radialGradient id="g2" cx="0.5" cy="0.35" r="0.55">
      <stop offset="0" stop-color="#00e5ff" stop-opacity="0.45"/>
      <stop offset="0.65" stop-color="#b14bff" stop-opacity="0.18"/>
      <stop offset="1" stop-color="#06070e" stop-opacity="0"/>
    </radialGradient>
    <linearGradient id="g3" x1="0" y1="1" x2="1" y2="0">
      <stop offset="0" stop-color="#1bf0a8" stop-opacity="0.9"/>
      <stop offset="1" stop-color="#00e5ff" stop-opacity="0.95"/>
    </linearGradient>
    <filter id="blur">
      <feGaussianBlur stdDeviation="18"/>
    </filter>
  </defs>
  <rect width="1200" height="630" fill="url(#g1)"/>
  <ellipse cx="600" cy="250" rx="520" ry="260" fill="url(#g2)"/>
  <path d="M0 430 C160 380 260 410 380 390 C520 365 620 335 760 360 C910 386 1030 350 1200 395 L1200 630 L0 630 Z" fill="#09101c"/>
  <path d="M0 470 C170 435 300 455 430 435 C560 415 695 385 830 415 C980 448 1080 415 1200 442 L1200 630 L0 630 Z" fill="#0b1622"/>
  <path d="M165 415 L1035 415 L1120 630 L80 630 Z" fill="#070912"/>
  <path d="M230 438 L970 438 L1025 630 L175 630 Z" fill="#0d1020"/>
  <path d="M300 460 L900 460 L940 630 L260 630 Z" fill="#12162a"/>
  <path d="M380 485 L820 485 L845 630 L355 630 Z" fill="#171b33"/>
  <path d="M470 512 L730 512 L745 630 L455 630 Z" fill="#1d2140"/>
  <path d="M100 400 L250 220 L330 400 Z" fill="#10142a"/>
  <path d="M1100 400 L950 220 L870 400 Z" fill="#10142a"/>
  <path d="M250 220 C370 165 492 145 600 145 C708 145 830 165 950 220 L870 400 L330 400 Z" fill="#121932"/>
  <path d="M295 245 C405 205 500 190 600 190 C700 190 795 205 905 245 L850 350 C720 320 480 320 350 350 Z" fill="#06070e"/>
  <path d="M365 355 C475 320 725 320 835 355 L805 405 L395 405 Z" fill="#0b1020"/>
  <path d="M250 220 C370 165 492 145 600 145 C708 145 830 165 950 220" fill="none" stroke="#00e5ff" stroke-width="8" opacity="0.8"/>
  <path d="M330 400 L870 400" stroke="#1bf0a8" stroke-width="7" opacity="0.75"/>
  <path d="M285 236 L120 70 L330 220 Z" fill="#00e5ff" opacity="0.13" filter="url(#blur)"/>
  <path d="M915 236 L1080 70 L870 220 Z" fill="#ff3b6b" opacity="0.15" filter="url(#blur)"/>
  <path d="M520 355 C560 325 635 325 680 355 C705 374 698 402 650 414 C598 427 522 416 500 392 C487 377 496 364 520 355 Z" fill="#17233a"/>
  <path d="M515 372 C555 388 630 392 685 372 C670 410 565 430 500 392 Z" fill="#1bf0a8" opacity="0.78"/>
  <path d="M555 330 L555 230" stroke="#f5a524" stroke-width="8" stroke-linecap="round"/>
  <path d="M558 238 C615 260 665 300 692 346 C635 333 595 310 558 238 Z" fill="#f5a524" opacity="0.88"/>
  <path d="M558 238 C610 255 648 285 670 322 C620 310 586 288 558 238 Z" fill="#ff3b6b" opacity="0.35"/>
  <path d="M505 356 C445 335 405 315 370 282 C438 288 495 309 540 346 Z" fill="#00e5ff" opacity="0.5"/>
  <path d="M690 356 C760 335 812 314 852 276 C780 283 716 308 660 348 Z" fill="#b14bff" opacity="0.48"/>
  <circle cx="600" cy="370" r="14" fill="#f5a524"/>
  <circle cx="240" cy="505" r="28" fill="#101a2e"/>
  <circle cx="320" cy="525" r="34" fill="#13203a"/>
  <circle cx="410" cy="545" r="30" fill="#0f1b31"/>
  <circle cx="790" cy="545" r="30" fill="#0f1b31"/>
  <circle cx="880" cy="525" r="34" fill="#13203a"/>
  <circle cx="960" cy="505" r="28" fill="#101a2e"/>
  <path d="M220 500 C236 470 268 470 284 500" fill="none" stroke="#1bf0a8" stroke-width="5" opacity="0.45"/>
  <path d="M300 520 C318 486 354 486 374 520" fill="none" stroke="#00e5ff" stroke-width="5" opacity="0.45"/>
  <path d="M390 540 C407 508 441 508 460 540" fill="none" stroke="#b14bff" stroke-width="5" opacity="0.45"/>
  <path d="M770 540 C787 508 821 508 840 540" fill="none" stroke="#b14bff" stroke-width="5" opacity="0.45"/>
  <path d="M860 520 C878 486 914 486 934 520" fill="none" stroke="#00e5ff" stroke-width="5" opacity="0.45"/>
  <path d="M940 500 C956 470 988 470 1004 500" fill="none" stroke="#1bf0a8" stroke-width="5" opacity="0.45"/>
  <path d="M85 260 C170 245 245 260 315 300" fill="none" stroke="#ff3b6b" stroke-width="10" opacity="0.55" stroke-linecap="round"/>
  <path d="M1115 260 C1030 245 955 260 885 300" fill="none" stroke="#ff3b6b" stroke-width="10" opacity="0.55" stroke-linecap="round"/>
  <path d="M180 185 C260 150 350 132 448 136" fill="none" stroke="#f5a524" stroke-width="7" opacity="0.42" stroke-linecap="round"/>
  <path d="M1020 185 C940 150 850 132 752 136" fill="none" stroke="#f5a524" stroke-width="7" opacity="0.42" stroke-linecap="round"/>
  <circle cx="180" cy="170" r="9" fill="#f5a524" opacity="0.75"/>
  <circle cx="1020" cy="170" r="9" fill="#f5a524" opacity="0.75"/>
  <circle cx="250" cy="145" r="7" fill="#00e5ff" opacity="0.65"/>
  <circle cx="950" cy="145" r="7" fill="#00e5ff" opacity="0.65"/>
  <circle cx="600" cy="118" r="11" fill="#1bf0a8" opacity="0.8"/>
  <path d="M460 120 C515 92 684 92 740 120" fill="none" stroke="#1bf0a8" stroke-width="6" opacity="0.32" stroke-linecap="round"/>
</svg>