<svg viewBox="0 0 1200 630" xmlns="http://www.w3.org/2000/svg">
  <defs>
    <linearGradient id="g1" x1="0" y1="0" x2="1" y2="1">
      <stop offset="0%" stop-color="#06070e"/>
      <stop offset="55%" stop-color="#10142a"/>
      <stop offset="100%" stop-color="#07120f"/>
    </linearGradient>
    <linearGradient id="g2" x1="0" y1="0" x2="1" y2="0">
      <stop offset="0%" stop-color="#1bf0a8" stop-opacity="0.15"/>
      <stop offset="50%" stop-color="#1bf0a8" stop-opacity="0.85"/>
      <stop offset="100%" stop-color="#00e5ff" stop-opacity="0.35"/>
    </linearGradient>
    <linearGradient id="g3" x1="0" y1="1" x2="0" y2="0">
      <stop offset="0%" stop-color="#00e5ff" stop-opacity="0.45"/>
      <stop offset="100%" stop-color="#b14bff" stop-opacity="0.05"/>
    </linearGradient>
    <radialGradient id="g4" cx="50%" cy="58%" r="48%">
      <stop offset="0%" stop-color="#1bf0a8" stop-opacity="0.28"/>
      <stop offset="100%" stop-color="#1bf0a8" stop-opacity="0"/>
    </radialGradient>
    <filter id="blur">
      <feGaussianBlur stdDeviation="10"/>
    </filter>
  </defs>
  <rect x="0" y="0" width="1200" height="630" fill="url(#g1)"/>
  <circle cx="610" cy="330" r="360" fill="url(#g4)" filter="url(#blur)"/>
  <rect x="0" y="448" width="1200" height="182" fill="#05060b"/>
  <polygon points="120,420 1080,420 1180,630 20,630" fill="#090d16"/>
  <polygon points="190,430 1010,430 1065,610 135,610" fill="#101a27"/>
  <path d="M95 275 C245 170 410 150 575 190 C745 232 905 170 1115 115 L1115 238 C920 294 752 352 570 305 C392 260 230 285 95 395 Z" fill="url(#g2)"/>
  <path d="M105 310 C260 220 410 210 570 250 C740 292 900 238 1105 185" fill="none" stroke="#1bf0a8" stroke-width="10" stroke-linecap="round" opacity="0.85"/>
  <path d="M118 360 C278 280 420 275 570 310 C738 350 910 305 1095 250" fill="none" stroke="#00e5ff" stroke-width="5" stroke-linecap="round" opacity="0.55"/>
  <rect x="155" y="455" width="150" height="92" rx="8" fill="#0d1520"/>
  <rect x="345" y="438" width="150" height="110" rx="8" fill="#0d1520"/>
  <rect x="535" y="465" width="150" height="82" rx="8" fill="#0d1520"/>
  <rect x="725" y="426" width="150" height="122" rx="8" fill="#0d1520"/>
  <rect x="915" y="448" width="150" height="100" rx="8" fill="#0d1520"/>
  <rect x="175" y="474" width="110" height="14" rx="7" fill="#1bf0a8" opacity="0.7"/>
  <rect x="365" y="458" width="110" height="14" rx="7" fill="#1bf0a8" opacity="0.8"/>
  <rect x="555" y="484" width="110" height="14" rx="7" fill="#1bf0a8" opacity="0.65"/>
  <rect x="745" y="446" width="110" height="14" rx="7" fill="#1bf0a8" opacity="0.85"/>
  <rect x="935" y="468" width="110" height="14" rx="7" fill="#1bf0a8" opacity="0.7"/>
  <rect x="175" y="502" width="72" height="10" rx="5" fill="#00e5ff" opacity="0.45"/>
  <rect x="365" y="486" width="84" height="10" rx="5" fill="#00e5ff" opacity="0.45"/>
  <rect x="555" y="512" width="68" height="10" rx="5" fill="#00e5ff" opacity="0.45"/>
  <rect x="745" y="474" width="94" height="10" rx="5" fill="#00e5ff" opacity="0.45"/>
  <rect x="935" y="496" width="76" height="10" rx="5" fill="#00e5ff" opacity="0.45"/>
  <polygon points="395,568 805,568 760,630 440,630" fill="#061c25"/>
  <path d="M430 575 C505 548 690 548 770 575 L742 620 C665 600 535 600 458 620 Z" fill="url(#g3)"/>
  <circle cx="600" cy="585" r="42" fill="#00e5ff" opacity="0.18"/>
  <circle cx="600" cy="585" r="28" fill="#00e5ff" opacity="0.12"/>
  <polygon points="600,542 625,585 600,628 575,585" fill="#b14bff" opacity="0.28"/>
  <path d="M485 588 C535 558 665 558 715 588" fill="none" stroke="#00e5ff" stroke-width="5" opacity="0.35" stroke-linecap="round"/>
  <circle cx="250" cy="385" r="12" fill="#1bf0a8" opacity="0.85"/>
  <circle cx="358" cy="342" r="9" fill="#1bf0a8" opacity="0.65"/>
  <circle cx="488" cy="328" r="11" fill="#1bf0a8" opacity="0.75"/>
  <circle cx="642" cy="354" r="8" fill="#1bf0a8" opacity="0.55"/>
  <circle cx="792" cy="321" r="10" fill="#1bf0a8" opacity="0.75"/>
  <circle cx="942" cy="276" r="12" fill="#1bf0a8" opacity="0.85"/>
  <path d="M85 515 L1120 515" stroke="#1bf0a8" stroke-width="2" opacity="0.18"/>
  <path d="M130 555 L1070 555" stroke="#00e5ff" stroke-width="2" opacity="0.12"/>
  <path d="M295 420 L350 365 L420 385 L485 332 L555 348 L620 315 L690 330 L755 292 L825 302 L905 250" fill="none" stroke="#f5a524" stroke-width="4" opacity="0.65" stroke-linecap="round" stroke-linejoin="round"/>
  <circle cx="905" cy="250" r="14" fill="#f5a524" opacity="0.85"/>
</svg>