<svg viewBox="0 0 1200 630" xmlns="http://www.w3.org/2000/svg">
  <defs>
    <linearGradient id="bg" x1="0" y1="0" x2="1" y2="1">
      <stop offset="0%" stop-color="#06070e"/>
      <stop offset="55%" stop-color="#10101c"/>
      <stop offset="100%" stop-color="#05060b"/>
    </linearGradient>
    <linearGradient id="storm" x1="0" y1="0" x2="0" y2="1">
      <stop offset="0%" stop-color="#ff3b6b" stop-opacity="0.92"/>
      <stop offset="100%" stop-color="#5c1028" stop-opacity="0.2"/>
    </linearGradient>
    <linearGradient id="flare" x1="0" y1="1" x2="0" y2="0">
      <stop offset="0%" stop-color="#1bf0a8" stop-opacity="0.1"/>
      <stop offset="45%" stop-color="#1bf0a8" stop-opacity="0.85"/>
      <stop offset="100%" stop-color="#00e5ff" stop-opacity="0.7"/>
    </linearGradient>
    <radialGradient id="glow" cx="54%" cy="63%" r="38%">
      <stop offset="0%" stop-color="#1bf0a8" stop-opacity="0.45"/>
      <stop offset="70%" stop-color="#00e5ff" stop-opacity="0.08"/>
      <stop offset="100%" stop-color="#06070e" stop-opacity="0"/>
    </radialGradient>
    <filter id="soft">
      <feGaussianBlur stdDeviation="12"/>
    </filter>
  </defs>
  <rect width="1200" height="630" fill="url(#bg)"/>
  <rect y="395" width="1200" height="235" fill="#080912"/>
  <ellipse cx="650" cy="455" rx="430" ry="130" fill="url(#glow)" filter="url(#soft)"/>
  <path d="M0 88 C105 42 183 128 285 91 C390 54 477 86 568 63 C681 34 770 68 882 51 C996 33 1080 72 1200 40 L1200 264 C1080 238 996 280 895 246 C778 207 693 254 580 219 C468 185 371 238 270 203 C163 167 86 211 0 184 Z" fill="url(#storm)"/>
  <path d="M0 185 C150 230 245 185 361 226 C482 269 573 220 704 260 C825 297 935 238 1200 291 L1200 337 C990 287 862 349 713 303 C584 263 489 310 357 268 C241 230 139 278 0 231 Z" fill="#ff3b6b" opacity="0.32"/>
  <path d="M115 450 L300 392 L495 452 L690 382 L888 452 L1075 398 L1200 430 L1200 630 L0 630 L0 500 Z" fill="#0f1220"/>
  <path d="M0 505 C170 476 275 532 420 494 C580 451 700 548 850 505 C1010 460 1092 505 1200 482 L1200 630 L0 630 Z" fill="#071318"/>
  <path d="M535 452 C558 380 590 324 626 271 C650 332 665 391 674 456 C650 444 585 441 535 452 Z" fill="url(#flare)" opacity="0.95"/>
  <path d="M597 482 C606 394 620 327 632 255 C655 341 683 407 718 481 C681 463 632 459 597 482 Z" fill="#00e5ff" opacity="0.5" filter="url(#soft)"/>
  <circle cx="628" cy="291" r="18" fill="#1bf0a8" opacity="0.9"/>
  <circle cx="644" cy="337" r="10" fill="#00e5ff" opacity="0.78"/>
  <rect x="145" y="388" width="210" height="78" rx="10" fill="#141827" stroke="#30364f" stroke-width="3"/>
  <rect x="172" y="409" width="42" height="32" fill="#ff3b6b" opacity="0.78"/>
  <rect x="226" y="421" width="88" height="11" fill="#ff3b6b" opacity="0.46"/>
  <rect x="377" y="407" width="185" height="70" rx="9" fill="#121725" stroke="#293148" stroke-width="3"/>
  <rect x="401" y="428" width="55" height="13" fill="#1bf0a8" opacity="0.8"/>
  <rect x="471" y="423" width="54" height="22" fill="#ff3b6b" opacity="0.55"/>
  <rect x="740" y="398" width="198" height="75" rx="9" fill="#121725" stroke="#293148" stroke-width="3"/>
  <rect x="764" y="421" width="42" height="27" fill="#1bf0a8" opacity="0.78"/>
  <rect x="821" y="416" width="75" height="12" fill="#ff3b6b" opacity="0.45"/>
  <rect x="958" y="385" width="165" height="63" rx="8" fill="#141827" stroke="#30364f" stroke-width="3"/>
  <rect x="982" y="407" width="46" height="13" fill="#f5a524" opacity="0.72"/>
  <rect x="1040" y="403" width="42" height="22" fill="#ff3b6b" opacity="0.6"/>
  <polygon points="188,506 306,468 426,506" fill="#151a2b"/>
  <polygon points="438,510 552,473 676,510" fill="#111625"/>
  <polygon points="706,508 830,467 956,508" fill="#151a2b"/>
  <polygon points="910,520 1030,482 1150,520" fill="#101624"/>
  <path d="M135 536 C235 508 315 558 416 532 C520 506 603 552 716 530 C835 506 930 555 1065 528" fill="none" stroke="#1bf0a8" stroke-width="5" opacity="0.38"/>
  <path d="M100 565 C246 532 365 584 504 552 C642 520 748 588 884 552 C1002 521 1083 549 1200 532" fill="none" stroke="#00e5ff" stroke-width="4" opacity="0.25"/>
  <path d="M52 318 C135 276 227 318 302 290 C410 250 486 308 573 276 C679 237 761 300 855 266 C974 224 1061 275 1165 246" fill="none" stroke="#ff3b6b" stroke-width="10" opacity="0.42"/>
  <path d="M72 342 C184 314 252 358 358 328 C469 296 546 350 656 318 C773 284 858 333 957 305 C1060 276 1122 302 1180 286" fill="none" stroke="#f5a524" stroke-width="4" opacity="0.25"/>
  <circle cx="246" cy="382" r="7" fill="#ff3b6b" opacity="0.8"/>
  <circle cx="477" cy="401" r="6" fill="#1bf0a8" opacity="0.8"/>
  <circle cx="835" cy="390" r="7" fill="#ff3b6b" opacity="0.8"/>
  <circle cx="1032" cy="379" r="6" fill="#f5a524" opacity="0.75"/>
  <path d="M520 525 C566 492 701 492 750 526" fill="none" stroke="#1bf0a8" stroke-width="7" opacity="0.65"/>
  <path d="M552 546 C590 522 685 522 724 546" fill="none" stroke="#00e5ff" stroke-width="5" opacity="0.5"/>
  <polygon points="624,247 636,284 674,286 643,309 653,346 624,324 594,346 604,309 573,286 612,284" fill="#1bf0a8" opacity="0.23"/>
</svg>