<svg viewBox="0 0 1200 630" xmlns="http://www.w3.org/2000/svg">
  <defs>
    <linearGradient id="bg" x1="0" y1="0" x2="1" y2="1">
      <stop offset="0%" stop-color="#06070e"/>
      <stop offset="55%" stop-color="#101426"/>
      <stop offset="100%" stop-color="#06070e"/>
    </linearGradient>
    <radialGradient id="glow" cx="50%" cy="25%" r="45%">
      <stop offset="0%" stop-color="#1bf0a8" stop-opacity="0.75"/>
      <stop offset="60%" stop-color="#00e5ff" stop-opacity="0.16"/>
      <stop offset="100%" stop-color="#06070e" stop-opacity="0"/>
    </radialGradient>
    <filter id="soft">
      <feGaussianBlur stdDeviation="10"/>
    </filter>
  </defs>
  <rect x="0" y="0" width="1200" height="630" fill="url(#bg)"/>
  <circle cx="600" cy="155" r="250" fill="url(#glow)"/>
  <path d="M0 455 C180 410 320 488 500 450 C700 408 830 480 1010 430 C1115 400 1165 405 1200 395 L1200 630 L0 630 Z" fill="#190b18"/>
  <path d="M0 500 C190 470 315 540 505 500 C695 462 840 535 1015 488 C1120 458 1165 462 1200 450 L1200 630 L0 630 Z" fill="#ff3b6b" opacity="0.35"/>
  <path d="M0 545 C170 520 340 575 510 545 C720 507 850 590 1030 535 C1125 507 1172 515 1200 505 L1200 630 L0 630 Z" fill="#ff3b6b" opacity="0.55"/>
  <rect x="165" y="350" width="120" height="58" rx="8" fill="#20263a"/>
  <rect x="185" y="322" width="82" height="42" rx="6" fill="#151a29"/>
  <rect x="187" y="324" width="78" height="38" rx="5" fill="#ff3b6b" opacity="0.38"/>
  <rect x="325" y="335" width="150" height="70" rx="8" fill="#242b3f"/>
  <rect x="355" y="292" width="90" height="56" rx="6" fill="#151a29"/>
  <rect x="358" y="295" width="84" height="50" rx="5" fill="#1bf0a8" opacity="0.55"/>
  <rect x="535" y="325" width="135" height="72" rx="8" fill="#232b42"/>
  <rect x="560" y="275" width="85" height="62" rx="6" fill="#151a29"/>
  <rect x="563" y="278" width="79" height="56" rx="5" fill="#00e5ff" opacity="0.48"/>
  <rect x="725" y="350" width="120" height="58" rx="8" fill="#20263a"/>
  <rect x="744" y="318" width="82" height="45" rx="6" fill="#151a29"/>
  <rect x="747" y="321" width="76" height="39" rx="5" fill="#ff3b6b" opacity="0.42"/>
  <rect x="890" y="330" width="150" height="70" rx="8" fill="#242b3f"/>
  <rect x="920" y="285" width="92" height="58" rx="6" fill="#151a29"/>
  <rect x="923" y="288" width="86" height="52" rx="5" fill="#1bf0a8" opacity="0.5"/>
  <path d="M600 95 L646 122 L646 178 L600 205 L554 178 L554 122 Z" fill="#1bf0a8" opacity="0.96"/>
  <path d="M600 112 L630 130 L630 166 L600 184 L570 166 L570 130 Z" fill="#08140f"/>
  <path d="M590 95 C590 70 610 70 610 95" stroke="#00e5ff" stroke-width="8" fill="none" stroke-linecap="round"/>
  <path d="M600 205 L600 285" stroke="#1bf0a8" stroke-width="5" opacity="0.65"/>
  <ellipse cx="600" cy="292" rx="95" ry="18" fill="#1bf0a8" opacity="0.16" filter="url(#soft)"/>
  <path d="M390 432 L420 385 L450 432 Z" fill="#1bf0a8" opacity="0.55"/>
  <path d="M435 428 L462 392 L489 428 Z" fill="#1bf0a8" opacity="0.35"/>
  <path d="M748 430 L776 390 L804 430 Z" fill="#ff3b6b" opacity="0.5"/>
  <path d="M205 436 L230 395 L255 436 Z" fill="#ff3b6b" opacity="0.48"/>
  <circle cx="230" cy="470" r="14" fill="#ff3b6b" opacity="0.6"/>
  <circle cx="780" cy="472" r="14" fill="#ff3b6b" opacity="0.62"/>
  <circle cx="400" cy="455" r="13" fill="#1bf0a8" opacity="0.55"/>
  <circle cx="965" cy="450" r="13" fill="#1bf0a8" opacity="0.5"/>
  <path d="M120 260 C220 220 320 228 420 250" stroke="#00e5ff" stroke-width="4" opacity="0.22" fill="none"/>
  <path d="M780 245 C880 205 990 215 1080 250" stroke="#1bf0a8" stroke-width="4" opacity="0.24" fill="none"/>
  <path d="M85 505 C160 485 230 520 300 505" stroke="#f5a524" stroke-width="5" opacity="0.28" fill="none"/>
  <path d="M845 515 C930 490 1010 535 1100 505" stroke="#f5a524" stroke-width="5" opacity="0.26" fill="none"/>
</svg>