<svg viewBox="0 0 1200 630" xmlns="http://www.w3.org/2000/svg">
  <defs>
    <radialGradient id="bg" cx="50%" cy="45%" r="70%">
      <stop offset="0%" stop-color="#10172a"/>
      <stop offset="55%" stop-color="#06070e"/>
      <stop offset="100%" stop-color="#020309"/>
    </radialGradient>
    <linearGradient id="cyanGlow" x1="0" y1="0" x2="1" y2="1">
      <stop offset="0%" stop-color="#00e5ff" stop-opacity="0.9"/>
      <stop offset="100%" stop-color="#1bf0a8" stop-opacity="0.55"/>
    </linearGradient>
    <linearGradient id="amberPipe" x1="0" y1="0" x2="1" y2="0">
      <stop offset="0%" stop-color="#f5a524" stop-opacity="0.2"/>
      <stop offset="45%" stop-color="#f5a524" stop-opacity="0.95"/>
      <stop offset="100%" stop-color="#ff3b6b" stop-opacity="0.8"/>
    </linearGradient>
    <filter id="soft">
      <feGaussianBlur stdDeviation="10"/>
    </filter>
    <filter id="glow">
      <feGaussianBlur stdDeviation="5" result="blur"/>
      <feMerge>
        <feMergeNode in="blur"/>
        <feMergeNode in="SourceGraphic"/>
      </feMerge>
    </filter>
  </defs>
  <rect width="1200" height="630" fill="url(#bg)"/>
  <ellipse cx="600" cy="570" rx="470" ry="55" fill="#000000" opacity="0.55"/>
  <path d="M210 510 C260 405 315 335 380 300 C470 250 730 250 820 300 C885 335 940 405 990 510 Z" fill="#0d1220" stroke="#1b2a44" stroke-width="4"/>
  <path d="M305 500 C345 395 410 340 500 320 L700 320 C790 340 855 395 895 500 Z" fill="#111a2c" stroke="#243659" stroke-width="3"/>
  <rect x="395" y="185" width="410" height="275" rx="34" fill="#0b1020" stroke="#263958" stroke-width="5"/>
  <rect x="425" y="215" width="350" height="215" rx="18" fill="#07101c" stroke="#00e5ff" stroke-opacity="0.35" stroke-width="3"/>
  <rect x="455" y="245" width="70" height="150" rx="8" fill="#092638" stroke="#00e5ff" stroke-width="3" filter="url(#glow)"/>
  <rect x="545" y="245" width="70" height="150" rx="8" fill="#092638" stroke="#1bf0a8" stroke-width="3" filter="url(#glow)"/>
  <rect x="635" y="245" width="70" height="150" rx="8" fill="#092638" stroke="#00e5ff" stroke-width="3" filter="url(#glow)"/>
  <rect x="725" y="245" width="20" height="150" rx="6" fill="#1bf0a8" opacity="0.7" filter="url(#glow)"/>
  <circle cx="475" cy="270" r="7" fill="#00e5ff"/>
  <circle cx="505" cy="270" r="7" fill="#1bf0a8"/>
  <circle cx="565" cy="270" r="7" fill="#00e5ff"/>
  <circle cx="595" cy="270" r="7" fill="#1bf0a8"/>
  <circle cx="655" cy="270" r="7" fill="#00e5ff"/>
  <circle cx="685" cy="270" r="7" fill="#1bf0a8"/>
  <path d="M455 315 H525" stroke="#00e5ff" stroke-width="5" stroke-linecap="round"/>
  <path d="M545 315 H615" stroke="#1bf0a8" stroke-width="5" stroke-linecap="round"/>
  <path d="M635 315 H705" stroke="#00e5ff" stroke-width="5" stroke-linecap="round"/>
  <path d="M455 355 H525" stroke="#00e5ff" stroke-opacity="0.55" stroke-width="5" stroke-linecap="round"/>
  <path d="M545 355 H615" stroke="#1bf0a8" stroke-opacity="0.55" stroke-width="5" stroke-linecap="round"/>
  <path d="M635 355 H705" stroke="#00e5ff" stroke-opacity="0.55" stroke-width="5" stroke-linecap="round"/>
  <path d="M118 210 C250 160 330 170 425 250" fill="none" stroke="url(#amberPipe)" stroke-width="30" stroke-linecap="round"/>
  <path d="M118 210 C250 160 330 170 425 250" fill="none" stroke="#f5a524" stroke-width="8" stroke-linecap="round" filter="url(#glow)"/>
  <circle cx="112" cy="212" r="42" fill="#1a1110" stroke="#f5a524" stroke-width="5"/>
  <circle cx="112" cy="212" r="25" fill="#f5a524" opacity="0.75" filter="url(#glow)"/>
  <path d="M805 255 C910 185 1020 175 1100 230" fill="none" stroke="#ff3b6b" stroke-width="18" stroke-linecap="round" opacity="0.8"/>
  <path d="M830 300 C920 265 1000 280 1068 340" fill="none" stroke="#b14bff" stroke-width="12" stroke-linecap="round" opacity="0.75"/>
  <circle cx="1100" cy="230" r="28" fill="#290817" stroke="#ff3b6b" stroke-width="4" filter="url(#glow)"/>
  <circle cx="1068" cy="340" r="22" fill="#160a2b" stroke="#b14bff" stroke-width="4" filter="url(#glow)"/>
  <path d="M500 175 L600 105 L700 175" fill="#11182a" stroke="#31476c" stroke-width="4"/>
  <circle cx="600" cy="170" r="44" fill="#07101c" stroke="#00e5ff" stroke-width="4" filter="url(#glow)"/>
  <path d="M575 170 C585 145 615 145 625 170 C615 195 585 195 575 170 Z" fill="#1bf0a8" opacity="0.85"/>
  <circle cx="600" cy="170" r="8" fill="#06070e"/>
  <path d="M355 505 L845 505" stroke="#00e5ff" stroke-opacity="0.25" stroke-width="6" stroke-linecap="round"/>
  <path d="M405 535 L795 535" stroke="#1bf0a8" stroke-opacity="0.18" stroke-width="5" stroke-linecap="round"/>
  <path d="M260 455 C310 430 360 430 410 455" fill="none" stroke="#ff3b6b" stroke-width="6" stroke-linecap="round" opacity="0.75"/>
  <path d="M790 455 C840 430 890 430 940 455" fill="none" stroke="#ff3b6b" stroke-width="6" stroke-linecap="round" opacity="0.75"/>
  <circle cx="250" cy="455" r="10" fill="#ff3b6b"/>
  <circle cx="950" cy="455" r="10" fill="#ff3b6b"/>
  <rect x="350" y="122" width="38" height="88" rx="10" fill="#0b1020" stroke="#263958" stroke-width="3"/>
  <rect x="812" y="122" width="38" height="88" rx="10" fill="#0b1020" stroke="#263958" stroke-width="3"/>
  <path d="M369 122 V82" stroke="#00e5ff" stroke-opacity="0.6" stroke-width="4" stroke-linecap="round"/>
  <path d="M831 122 V82" stroke="#ff3b6b" stroke-opacity="0.6" stroke-width="4" stroke-linecap="round"/>
  <circle cx="369" cy="75" r="9" fill="#00e5ff" opacity="0.8" filter="url(#glow)"/>
  <circle cx="831" cy="75" r="9" fill="#ff3b6b" opacity="0.8" filter="url(#glow)"/>
  <circle cx="225" cy="135" r="70" fill="#00e5ff" opacity="0.07" filter="url(#soft)"/>
  <circle cx="980" cy="150" r="90" fill="#ff3b6b" opacity="0.08" filter="url(#soft)"/>
  <circle cx="600" cy="330" r="230" fill="#00e5ff" opacity="0.04" filter="url(#soft)"/>
</svg>