<svg viewBox="0 0 1200 630" xmlns="http://www.w3.org/2000/svg">
  <defs>
    <linearGradient id="bg" x1="0" y1="0" x2="1" y2="1">
      <stop offset="0%" stop-color="#06070e"/>
      <stop offset="55%" stop-color="#10142a"/>
      <stop offset="100%" stop-color="#06070e"/>
    </linearGradient>
    <linearGradient id="floor" x1="0" y1="1" x2="1" y2="0">
      <stop offset="0%" stop-color="#08321f"/>
      <stop offset="55%" stop-color="#1bf0a8"/>
      <stop offset="100%" stop-color="#00e5ff"/>
    </linearGradient>
    <radialGradient id="glow" cx="50%" cy="45%" r="55%">
      <stop offset="0%" stop-color="#1bf0a8" stop-opacity="0.45"/>
      <stop offset="70%" stop-color="#00e5ff" stop-opacity="0.12"/>
      <stop offset="100%" stop-color="#06070e" stop-opacity="0"/>
    </radialGradient>
    <filter id="blur">
      <feGaussianBlur stdDeviation="10"/>
    </filter>
  </defs>
  <rect x="0" y="0" width="1200" height="630" fill="url(#bg)"/>
  <circle cx="560" cy="310" r="300" fill="url(#glow)" filter="url(#blur)"/>
  <rect x="120" y="75" width="880" height="330" rx="26" fill="#0b1020" opacity="0.82"/>
  <rect x="150" y="105" width="820" height="270" rx="18" fill="#151a35" opacity="0.72"/>
  <polygon points="155,360 515,170 965,230 965,375 155,375" fill="#1bf0a8" opacity="0.12"/>
  <polygon points="170,360 515,190 950,250 950,366 170,366" fill="#00e5ff" opacity="0.10"/>
  <path d="M180 355 C320 300 370 230 515 190 C650 155 790 210 945 245" fill="none" stroke="#1bf0a8" stroke-width="10" stroke-linecap="round"/>
  <path d="M180 355 C320 300 370 230 515 190 C650 155 790 210 945 245" fill="none" stroke="#00e5ff" stroke-width="3" stroke-linecap="round" opacity="0.85"/>
  <circle cx="180" cy="355" r="9" fill="#1bf0a8"/>
  <circle cx="515" cy="190" r="12" fill="#00e5ff"/>
  <circle cx="945" cy="245" r="10" fill="#1bf0a8"/>
  <polygon points="120,500 1080,500 940,385 260,385" fill="url(#floor)" opacity="0.32"/>
  <polygon points="250,385 940,385 1080,500 120,500" fill="none" stroke="#1bf0a8" stroke-width="4" opacity="0.65"/>
  <path d="M260 385 L120 500" stroke="#1bf0a8" stroke-width="2" opacity="0.45"/>
  <path d="M430 385 L365 500" stroke="#1bf0a8" stroke-width="2" opacity="0.38"/>
  <path d="M600 385 L600 500" stroke="#1bf0a8" stroke-width="2" opacity="0.38"/>
  <path d="M770 385 L835 500" stroke="#1bf0a8" stroke-width="2" opacity="0.38"/>
  <path d="M940 385 L1080 500" stroke="#1bf0a8" stroke-width="2" opacity="0.45"/>
  <path d="M205 430 L995 430" stroke="#00e5ff" stroke-width="2" opacity="0.24"/>
  <path d="M155 465 L1045 465" stroke="#00e5ff" stroke-width="2" opacity="0.22"/>
  <rect x="300" y="410" width="95" height="50" rx="8" fill="#0b1020" opacity="0.78"/>
  <rect x="425" y="398" width="95" height="62" rx="8" fill="#0b1020" opacity="0.78"/>
  <rect x="550" y="383" width="95" height="77" rx="8" fill="#0b1020" opacity="0.78"/>
  <rect x="675" y="372" width="95" height="88" rx="8" fill="#0b1020" opacity="0.78"/>
  <rect x="800" y="358" width="95" height="102" rx="8" fill="#0b1020" opacity="0.78"/>
  <rect x="312" y="421" width="70" height="8" rx="4" fill="#1bf0a8" opacity="0.8"/>
  <rect x="438" y="411" width="68" height="8" rx="4" fill="#1bf0a8" opacity="0.82"/>
  <rect x="563" y="398" width="68" height="8" rx="4" fill="#00e5ff" opacity="0.85"/>
  <rect x="688" y="386" width="68" height="8" rx="4" fill="#1bf0a8" opacity="0.82"/>
  <rect x="813" y="374" width="68" height="8" rx="4" fill="#00e5ff" opacity="0.85"/>
  <circle cx="585" cy="315" r="35" fill="#11182c"/>
  <circle cx="585" cy="315" r="24" fill="#1bf0a8" opacity="0.92"/>
  <path d="M560 318 C570 295 602 295 611 318" fill="none" stroke="#06070e" stroke-width="6" stroke-linecap="round"/>
  <rect x="572" y="348" width="26" height="65" rx="12" fill="#12182d"/>
  <path d="M545 405 C565 388 604 388 625 405 L650 455 L520 455 Z" fill="#151a35"/>
  <path d="M545 405 C565 388 604 388 625 405" fill="none" stroke="#1bf0a8" stroke-width="4" opacity="0.8"/>
  <circle cx="1020" cy="142" r="72" fill="#ff3b6b" opacity="0.20" filter="url(#blur)"/>
  <path d="M935 155 C960 105 1015 95 1050 132 C1088 118 1128 145 1130 185 C1095 175 1068 190 1042 212 C1008 190 977 178 935 155 Z" fill="#ff3b6b" opacity="0.42"/>
  <path d="M955 166 C986 138 1020 142 1046 164" fill="none" stroke="#f5a524" stroke-width="4" opacity="0.52"/>
  <path d="M1002 205 C988 245 965 270 920 292" fill="none" stroke="#ff3b6b" stroke-width="7" opacity="0.35" stroke-linecap="round"/>
  <path d="M1080 195 C1070 230 1045 260 1010 280" fill="none" stroke="#ff3b6b" stroke-width="6" opacity="0.30" stroke-linecap="round"/>
  <circle cx="220" cy="155" r="8" fill="#00e5ff" opacity="0.65"/>
  <circle cx="275" cy="125" r="5" fill="#1bf0a8" opacity="0.7"/>
  <circle cx="345" cy="170" r="6" fill="#00e5ff" opacity="0.55"/>
  <circle cx="720" cy="125" r="7" fill="#1bf0a8" opacity="0.65"/>
  <circle cx="845" cy="175" r="5" fill="#00e5ff" opacity="0.55"/>
  <path d="M145 520 C300 565 470 582 610 570 C775 556 920 530 1070 548" fill="none" stroke="#1bf0a8" stroke-width="8" opacity="0.18" stroke-linecap="round"/>
  <path d="M180 545 C350 598 605 604 820 568 C930 550 1015 556 1095 585" fill="none" stroke="#00e5ff" stroke-width="5" opacity="0.15" stroke-linecap="round"/>
  <rect x="0" y="560" width="1200" height="70" fill="#06070e" opacity="0.5"/>
</svg>