<svg viewBox="0 0 1200 630" xmlns="http://www.w3.org/2000/svg">
  <defs>
    <linearGradient id="bg" x1="0" y1="0" x2="1" y2="1">
      <stop offset="0" stop-color="#06070e"/>
      <stop offset="0.55" stop-color="#10101b"/>
      <stop offset="1" stop-color="#05060b"/>
    </linearGradient>
    <linearGradient id="redRain" x1="0" y1="0" x2="0" y2="1">
      <stop offset="0" stop-color="#ff3b6b" stop-opacity="0.95"/>
      <stop offset="1" stop-color="#ff3b6b" stop-opacity="0.05"/>
    </linearGradient>
    <linearGradient id="greenGlow" x1="0" y1="1" x2="1" y2="0">
      <stop offset="0" stop-color="#1bf0a8" stop-opacity="0.9"/>
      <stop offset="1" stop-color="#00e5ff" stop-opacity="0.25"/>
    </linearGradient>
    <radialGradient id="safe" cx="78%" cy="72%" r="35%">
      <stop offset="0" stop-color="#1bf0a8" stop-opacity="0.34"/>
      <stop offset="1" stop-color="#1bf0a8" stop-opacity="0"/>
    </radialGradient>
    <filter id="blur">
      <feGaussianBlur stdDeviation="8"/>
    </filter>
  </defs>
  <rect width="1200" height="630" fill="url(#bg)"/>
  <rect x="0" y="0" width="1200" height="630" fill="url(#safe)"/>
  <path d="M0 430 C180 385 310 455 470 420 C650 382 770 330 940 370 C1070 400 1120 355 1200 330 L1200 630 L0 630 Z" fill="#0b0d16"/>
  <path d="M0 500 C210 465 360 520 540 480 C740 436 925 460 1200 405 L1200 630 L0 630 Z" fill="#121525"/>
  <polygon points="96,134 420,92 528,390 150,442" fill="#171827" stroke="#ff3b6b" stroke-opacity="0.45" stroke-width="3"/>
  <polygon points="462,104 762,140 700,412 392,374" fill="#121522" stroke="#ff3b6b" stroke-opacity="0.35" stroke-width="3"/>
  <polygon points="800,118 1105,84 1070,395 755,430" fill="#111421" stroke="#00e5ff" stroke-opacity="0.28" stroke-width="3"/>
  <path d="M150 442 L260 306 L338 366 L420 92" fill="none" stroke="#ff3b6b" stroke-width="7" stroke-linecap="round"/>
  <path d="M392 374 L480 248 L570 295 L700 182" fill="none" stroke="#ff3b6b" stroke-width="7" stroke-linecap="round"/>
  <path d="M755 430 L842 342 L922 362 L1070 190" fill="none" stroke="#1bf0a8" stroke-width="7" stroke-linecap="round"/>
  <circle cx="260" cy="306" r="9" fill="#ff3b6b"/>
  <circle cx="338" cy="366" r="9" fill="#ff3b6b"/>
  <circle cx="480" cy="248" r="9" fill="#ff3b6b"/>
  <circle cx="570" cy="295" r="9" fill="#ff3b6b"/>
  <circle cx="842" cy="342" r="9" fill="#1bf0a8"/>
  <circle cx="922" cy="362" r="9" fill="#1bf0a8"/>
  <path d="M110 80 L228 252" stroke="#ff3b6b" stroke-opacity="0.35" stroke-width="3"/>
  <path d="M232 76 L332 438" stroke="#ff3b6b" stroke-opacity="0.25" stroke-width="3"/>
  <path d="M374 62 L448 372" stroke="#ff3b6b" stroke-opacity="0.25" stroke-width="3"/>
  <path d="M548 72 L520 384" stroke="#ff3b6b" stroke-opacity="0.2" stroke-width="3"/>
  <path d="M665 78 L610 398" stroke="#ff3b6b" stroke-opacity="0.18" stroke-width="3"/>
  <path d="M840 58 L792 420" stroke="#00e5ff" stroke-opacity="0.16" stroke-width="3"/>
  <path d="M1008 46 L982 402" stroke="#00e5ff" stroke-opacity="0.18" stroke-width="3"/>
  <rect x="72" y="448" width="210" height="48" rx="6" fill="#1b1c2a"/>
  <rect x="326" y="414" width="195" height="44" rx="6" fill="#1b1c2a"/>
  <rect x="630" y="452" width="172" height="42" rx="6" fill="#191b27"/>
  <rect x="874" y="420" width="210" height="50" rx="6" fill="#17221f"/>
  <rect x="90" y="459" width="72" height="12" fill="#ff3b6b" opacity="0.75"/>
  <rect x="176" y="459" width="78" height="12" fill="#ff3b6b" opacity="0.45"/>
  <rect x="344" y="425" width="70" height="11" fill="#ff3b6b" opacity="0.75"/>
  <rect x="428" y="425" width="64" height="11" fill="#ff3b6b" opacity="0.35"/>
  <rect x="648" y="463" width="52" height="10" fill="#f5a524" opacity="0.55"/>
  <rect x="714" y="463" width="60" height="10" fill="#ff3b6b" opacity="0.35"/>
  <rect x="894" y="432" width="75" height="12" fill="#1bf0a8" opacity="0.75"/>
  <rect x="982" y="432" width="78" height="12" fill="#00e5ff" opacity="0.45"/>
  <path d="M720 560 C738 510 762 488 798 474 C780 512 760 536 720 560 Z" fill="#1bf0a8" opacity="0.8"/>
  <path d="M780 570 C802 520 835 494 880 488 C858 530 826 556 780 570 Z" fill="#1bf0a8" opacity="0.78"/>
  <path d="M850 580 C878 526 918 506 970 510 C940 552 904 574 850 580 Z" fill="#00e5ff" opacity="0.55"/>
  <path d="M700 590 C745 548 814 542 870 566 C810 596 760 602 700 590 Z" fill="#1bf0a8" opacity="0.55"/>
  <circle cx="870" cy="514" r="58" fill="#1bf0a8" opacity="0.12" filter="url(#blur)"/>
  <path d="M80 520 L260 500 L370 565 L520 520 L650 575 L780 535 L950 585 L1140 545" fill="none" stroke="#ff3b6b" stroke-opacity="0.32" stroke-width="5"/>
  <path d="M60 104 L1140 524" stroke="#ffffff" stroke-opacity="0.08" stroke-width="4"/>
  <path d="M180 96 L640 556" stroke="#ffffff" stroke-opacity="0.06" stroke-width="3"/>
  <path d="M1040 96 L572 550" stroke="#ffffff" stroke-opacity="0.07" stroke-width="4"/>
  <circle cx="214" cy="198" r="34" fill="#ff3b6b" opacity="0.18" filter="url(#blur)"/>
  <circle cx="520" cy="226" r="42" fill="#ff3b6b" opacity="0.16" filter="url(#blur)"/>
  <circle cx="945" cy="296" r="40" fill="#1bf0a8" opacity="0.14" filter="url(#blur)"/>
</svg>