<svg viewBox="0 0 1200 630" xmlns="http://www.w3.org/2000/svg">
  <defs>
    <linearGradient id="bg" x1="0" y1="0" x2="1" y2="1">
      <stop offset="0" stop-color="#06070e"/>
      <stop offset="1" stop-color="#160717"/>
    </linearGradient>
    <linearGradient id="water" x1="0" y1="0" x2="0" y2="1">
      <stop offset="0" stop-color="#ff3b6b" stop-opacity="0.85"/>
      <stop offset="1" stop-color="#5b0d22" stop-opacity="0.98"/>
    </linearGradient>
    <radialGradient id="glow" cx="50%" cy="45%" r="55%">
      <stop offset="0" stop-color="#00e5ff" stop-opacity="0.35"/>
      <stop offset="1" stop-color="#00e5ff" stop-opacity="0"/>
    </radialGradient>
    <filter id="soft">
      <feGaussianBlur stdDeviation="10"/>
    </filter>
  </defs>
  <rect width="1200" height="630" fill="url(#bg)"/>
  <circle cx="610" cy="250" r="330" fill="url(#glow)" filter="url(#soft)"/>
  <path d="M0 400 C120 355 210 430 335 386 C455 344 560 420 690 382 C835 340 930 430 1200 365 L1200 630 L0 630 Z" fill="url(#water)"/>
  <path d="M0 447 C145 405 230 478 370 438 C510 398 620 476 760 430 C910 382 1035 468 1200 420 L1200 630 L0 630 Z" fill="#ff3b6b" opacity="0.35"/>
  <rect x="85" y="150" width="130" height="250" rx="12" fill="#111528"/>
  <rect x="245" y="115" width="155" height="290" rx="12" fill="#101426"/>
  <rect x="430" y="175" width="120" height="225" rx="12" fill="#111528"/>
  <rect x="650" y="120" width="150" height="280" rx="12" fill="#101426"/>
  <rect x="835" y="170" width="115" height="230" rx="12" fill="#111528"/>
  <rect x="985" y="135" width="145" height="265" rx="12" fill="#101426"/>
  <rect x="105" y="175" width="90" height="18" rx="4" fill="#ff3b6b" opacity="0.8"/>
  <rect x="105" y="218" width="65" height="18" rx="4" fill="#ff3b6b" opacity="0.65"/>
  <rect x="105" y="262" width="80" height="18" rx="4" fill="#ff3b6b" opacity="0.7"/>
  <rect x="270" y="145" width="100" height="20" rx="4" fill="#ff3b6b" opacity="0.85"/>
  <rect x="270" y="190" width="85" height="20" rx="4" fill="#ff3b6b" opacity="0.72"/>
  <rect x="270" y="238" width="110" height="20" rx="4" fill="#ff3b6b" opacity="0.8"/>
  <rect x="455" y="205" width="70" height="18" rx="4" fill="#ff3b6b" opacity="0.7"/>
  <rect x="455" y="250" width="55" height="18" rx="4" fill="#ff3b6b" opacity="0.62"/>
  <rect x="675" y="150" width="95" height="20" rx="4" fill="#ff3b6b" opacity="0.78"/>
  <rect x="675" y="198" width="75" height="20" rx="4" fill="#ff3b6b" opacity="0.65"/>
  <rect x="675" y="246" width="105" height="20" rx="4" fill="#ff3b6b" opacity="0.88"/>
  <rect x="858" y="202" width="68" height="18" rx="4" fill="#ff3b6b" opacity="0.65"/>
  <rect x="858" y="247" width="52" height="18" rx="4" fill="#ff3b6b" opacity="0.58"/>
  <rect x="1010" y="165" width="90" height="19" rx="4" fill="#ff3b6b" opacity="0.75"/>
  <rect x="1010" y="210" width="70" height="19" rx="4" fill="#ff3b6b" opacity="0.6"/>
  <polygon points="538,455 618,410 700,455 680,498 560,498" fill="#10251f"/>
  <polygon points="548,450 618,418 690,450 670,480 570,480" fill="#1bf0a8" opacity="0.85"/>
  <circle cx="617" cy="405" r="30" fill="#1bf0a8" opacity="0.22" filter="url(#soft)"/>
  <rect x="590" y="340" width="52" height="96" rx="24" fill="#0b1118"/>
  <circle cx="616" cy="315" r="28" fill="#0b1118"/>
  <path d="M585 375 C555 388 540 420 548 451" fill="none" stroke="#00e5ff" stroke-width="8" stroke-linecap="round" opacity="0.55"/>
  <path d="M648 375 C680 388 694 420 686 451" fill="none" stroke="#00e5ff" stroke-width="8" stroke-linecap="round" opacity="0.55"/>
  <path d="M160 510 C230 485 295 540 370 512" fill="none" stroke="#f5a524" stroke-width="7" opacity="0.42"/>
  <path d="M780 505 C850 470 940 540 1035 495" fill="none" stroke="#f5a524" stroke-width="7" opacity="0.38"/>
  <path d="M45 560 C145 525 230 585 335 545" fill="none" stroke="#ff9ab0" stroke-width="5" opacity="0.36"/>
  <path d="M890 570 C990 535 1080 590 1190 552" fill="none" stroke="#ff9ab0" stroke-width="5" opacity="0.32"/>
  <circle cx="160" cy="430" r="8" fill="#ff3b6b" opacity="0.9"/>
  <circle cx="232" cy="455" r="6" fill="#ff3b6b" opacity="0.75"/>
  <circle cx="405" cy="425" r="7" fill="#ff3b6b" opacity="0.8"/>
  <circle cx="820" cy="438" r="8" fill="#ff3b6b" opacity="0.82"/>
  <circle cx="1015" cy="430" r="7" fill="#ff3b6b" opacity="0.72"/>
  <circle cx="1110" cy="455" r="6" fill="#ff3b6b" opacity="0.65"/>
  <polygon points="300,360 338,330 376,360 360,390 316,390" fill="#1bf0a8" opacity="0.55"/>
  <polygon points="905,352 943,323 982,352 965,385 922,385" fill="#1bf0a8" opacity="0.5"/>
  <circle cx="338" cy="328" r="24" fill="#1bf0a8" opacity="0.18" filter="url(#soft)"/>
  <circle cx="943" cy="322" r="24" fill="#1bf0a8" opacity="0.16" filter="url(#soft)"/>
</svg>