<svg viewBox="0 0 1200 630" xmlns="http://www.w3.org/2000/svg">
  <defs>
    <linearGradient id="bg" x1="0" y1="0" x2="1" y2="1">
      <stop offset="0%" stop-color="#06070e"/>
      <stop offset="55%" stop-color="#101326"/>
      <stop offset="100%" stop-color="#06070e"/>
    </linearGradient>
    <linearGradient id="floor" x1="0" y1="1" x2="1" y2="0">
      <stop offset="0%" stop-color="#06351f"/>
      <stop offset="55%" stop-color="#1bf0a8"/>
      <stop offset="100%" stop-color="#00e5ff"/>
    </linearGradient>
    <linearGradient id="ceiling" x1="0" y1="0" x2="0" y2="1">
      <stop offset="0%" stop-color="#f5a524" stop-opacity="0.72"/>
      <stop offset="100%" stop-color="#f5a524" stop-opacity="0.08"/>
    </linearGradient>
    <radialGradient id="redpool" cx="50%" cy="50%" r="60%">
      <stop offset="0%" stop-color="#ff3b6b" stop-opacity="0.9"/>
      <stop offset="100%" stop-color="#3b0714" stop-opacity="0.1"/>
    </radialGradient>
    <filter id="soft">
      <feGaussianBlur stdDeviation="6"/>
    </filter>
  </defs>
  <rect width="1200" height="630" fill="url(#bg)"/>
  <polygon points="0,418 260,342 560,315 900,285 1200,250 1200,630 0,630" fill="url(#floor)" opacity="0.88"/>
  <polygon points="0,0 1200,0 1200,178 890,206 585,226 276,244 0,270" fill="url(#ceiling)"/>
  <path d="M85 430 C220 375 340 362 492 338 C690 306 870 300 1110 260" fill="none" stroke="#1bf0a8" stroke-width="20" stroke-linecap="round" opacity="0.82"/>
  <path d="M115 462 C278 405 402 392 548 370 C736 342 892 330 1085 302" fill="none" stroke="#00e5ff" stroke-width="8" stroke-linecap="round" opacity="0.72"/>
  <path d="M148 494 C310 452 474 430 632 407 C784 384 944 365 1086 342" fill="none" stroke="#b14bff" stroke-width="5" stroke-linecap="round" opacity="0.45"/>
  <ellipse cx="646" cy="538" rx="260" ry="58" fill="url(#redpool)" opacity="0.78"/>
  <ellipse cx="646" cy="538" rx="142" ry="28" fill="#ff3b6b" opacity="0.25"/>
  <path d="M506 512 C552 486 602 482 648 506 C704 535 746 526 796 500" fill="none" stroke="#ff3b6b" stroke-width="10" stroke-linecap="round" opacity="0.75"/>
  <rect x="180" y="360" width="105" height="76" rx="10" fill="#09111c" stroke="#1bf0a8" stroke-width="3" opacity="0.92"/>
  <rect x="338" y="334" width="128" height="88" rx="10" fill="#09111c" stroke="#00e5ff" stroke-width="3" opacity="0.92"/>
  <rect x="520" y="310" width="150" height="98" rx="10" fill="#09111c" stroke="#1bf0a8" stroke-width="3" opacity="0.92"/>
  <rect x="730" y="290" width="132" height="88" rx="10" fill="#09111c" stroke="#00e5ff" stroke-width="3" opacity="0.92"/>
  <rect x="930" y="262" width="112" height="78" rx="10" fill="#09111c" stroke="#1bf0a8" stroke-width="3" opacity="0.92"/>
  <path d="M194 410 L226 388 L246 398 L272 374" fill="none" stroke="#1bf0a8" stroke-width="5" stroke-linecap="round" stroke-linejoin="round"/>
  <path d="M356 386 L390 358 L424 366 L452 344" fill="none" stroke="#00e5ff" stroke-width="5" stroke-linecap="round" stroke-linejoin="round"/>
  <path d="M542 365 L578 340 L612 346 L650 326" fill="none" stroke="#1bf0a8" stroke-width="5" stroke-linecap="round" stroke-linejoin="round"/>
  <path d="M748 346 L780 322 L814 330 L846 310" fill="none" stroke="#00e5ff" stroke-width="5" stroke-linecap="round" stroke-linejoin="round"/>
  <path d="M946 315 L976 292 L1002 300 L1028 282" fill="none" stroke="#1bf0a8" stroke-width="5" stroke-linecap="round" stroke-linejoin="round"/>
  <circle cx="232" cy="388" r="6" fill="#1bf0a8"/>
  <circle cx="390" cy="358" r="6" fill="#00e5ff"/>
  <circle cx="578" cy="340" r="6" fill="#1bf0a8"/>
  <circle cx="780" cy="322" r="6" fill="#00e5ff"/>
  <circle cx="976" cy="292" r="6" fill="#1bf0a8"/>
  <polygon points="100,176 1140,102 1114,138 124,214" fill="#f5a524" opacity="0.24"/>
  <polygon points="136,220 1120,152 1094,190 160,254" fill="#f5a524" opacity="0.16"/>
  <circle cx="1020" cy="122" r="54" fill="#f5a524" opacity="0.2" filter="url(#soft)"/>
  <circle cx="1020" cy="122" r="24" fill="#f5a524" opacity="0.62"/>
  <path d="M925 526 C952 494 984 484 1016 510 C1040 530 1068 530 1098 506" fill="none" stroke="#ff3b6b" stroke-width="9" stroke-linecap="round" opacity="0.62"/>
  <path d="M108 540 C170 510 236 498 300 518 C356 536 408 530 462 502" fill="none" stroke="#1bf0a8" stroke-width="7" stroke-linecap="round" opacity="0.58"/>
  <circle cx="418" cy="552" r="10" fill="#00e5ff" opacity="0.72"/>
  <circle cx="464" cy="548" r="7" fill="#1bf0a8" opacity="0.72"/>
  <circle cx="824" cy="552" r="8" fill="#ff3b6b" opacity="0.7"/>
  <circle cx="872" cy="544" r="6" fill="#ff3b6b" opacity="0.58"/>
  <path d="M594 468 C612 444 640 444 658 468 L684 520 L568 520 Z" fill="#06070e" opacity="0.88"/>
  <circle cx="626" cy="434" r="28" fill="#06070e" opacity="0.88"/>
  <path d="M548 488 C584 472 664 472 704 490" fill="none" stroke="#f5a524" stroke-width="7" stroke-linecap="round" opacity="0.7"/>
  <path d="M42 606 C204 578 360 568 526 586 C720 606 920 594 1160 552" fill="none" stroke="#00e5ff" stroke-width="4" opacity="0.32"/>
</svg>