<svg viewBox="0 0 1200 630" xmlns="http://www.w3.org/2000/svg">
  <defs>
    <linearGradient id="g1" x1="0" y1="0" x2="1" y2="1">
      <stop offset="0%" stop-color="#06070e"/>
      <stop offset="100%" stop-color="#141022"/>
    </linearGradient>
    <radialGradient id="g2" cx="50%" cy="35%" r="60%">
      <stop offset="0%" stop-color="#00e5ff" stop-opacity="0.28"/>
      <stop offset="100%" stop-color="#06070e" stop-opacity="0"/>
    </radialGradient>
    <filter id="f1">
      <feGaussianBlur stdDeviation="14"/>
    </filter>
  </defs>
  <rect x="0" y="0" width="1200" height="630" fill="url(#g1)"/>
  <rect x="0" y="0" width="1200" height="630" fill="url(#g2)"/>
  <path d="M0 500 C180 455 285 520 420 482 C560 443 676 455 810 505 C956 560 1060 524 1200 488 L1200 630 L0 630 Z" fill="#101827"/>
  <path d="M0 548 C190 520 330 562 480 532 C646 498 820 526 966 570 C1058 598 1135 582 1200 552 L1200 630 L0 630 Z" fill="#07101a"/>
  <polygon points="690,106 826,162 770,286 620,248" fill="#1bf0a8" opacity="0.92"/>
  <polygon points="690,106 750,190 620,248" fill="#00e5ff" opacity="0.7"/>
  <polygon points="826,162 750,190 770,286" fill="#f5a524" opacity="0.45"/>
  <path d="M620 248 C560 302 516 350 462 420 C424 470 370 508 306 534" fill="none" stroke="#00e5ff" stroke-width="5" opacity="0.65"/>
  <path d="M770 286 C706 330 650 376 596 438 C548 492 486 526 414 552" fill="none" stroke="#1bf0a8" stroke-width="4" opacity="0.55"/>
  <circle cx="286" cy="544" r="34" fill="#22283a"/>
  <circle cx="286" cy="544" r="20" fill="#0b0f19"/>
  <circle cx="408" cy="558" r="42" fill="#262033"/>
  <circle cx="408" cy="558" r="25" fill="#0b0f19"/>
  <rect x="250" y="534" width="190" height="18" rx="9" fill="#3b3448"/>
  <path d="M250 534 C236 500 250 468 282 454 C326 436 362 468 354 510" fill="none" stroke="#ff3b6b" stroke-width="16" opacity="0.78"/>
  <path d="M394 548 C380 502 396 466 430 450 C478 428 518 462 510 512" fill="none" stroke="#f5a524" stroke-width="14" opacity="0.7"/>
  <circle cx="282" cy="454" r="12" fill="#ff3b6b"/>
  <circle cx="430" cy="450" r="11" fill="#f5a524"/>
  <path d="M160 420 L230 386 L302 426 L236 466 Z" fill="#151b2c"/>
  <path d="M180 422 L232 398 L282 426 L236 452 Z" fill="#00e5ff" opacity="0.18"/>
  <path d="M922 386 L1018 344 L1110 396 L1014 446 Z" fill="#151b2c"/>
  <path d="M950 390 L1018 360 L1080 396 L1014 430 Z" fill="#1bf0a8" opacity="0.16"/>
  <rect x="126" y="468" width="132" height="18" rx="9" fill="#20283c"/>
  <rect x="884" y="456" width="188" height="20" rx="10" fill="#20283c"/>
  <path d="M110 320 C220 280 286 318 360 288 C458 250 530 260 610 300" fill="none" stroke="#b14bff" stroke-width="3" opacity="0.35"/>
  <path d="M760 336 C830 308 908 310 982 334 C1044 354 1096 350 1160 320" fill="none" stroke="#00e5ff" stroke-width="3" opacity="0.28"/>
  <circle cx="712" cy="206" r="172" fill="#1bf0a8" opacity="0.08" filter="url(#f1)"/>
  <circle cx="300" cy="220" r="96" fill="#ff3b6b" opacity="0.09" filter="url(#f1)"/>
  <polygon points="560,438 604,420 628,462 580,480" fill="#1b2134"/>
  <polygon points="600,428 638,412 660,450 620,468" fill="#242a3d"/>
  <polygon points="640,416 672,402 694,436 660,452" fill="#303449"/>
  <path d="M210 585 C306 560 402 578 506 560 C636 538 736 568 852 590 C994 618 1088 598 1200 574 L1200 630 L0 630 L0 602 C72 594 140 602 210 585 Z" fill="#06070e" opacity="0.82"/>
  <circle cx="912" cy="120" r="5" fill="#00e5ff" opacity="0.7"/>
  <circle cx="960" cy="158" r="4" fill="#1bf0a8" opacity="0.65"/>
  <circle cx="524" cy="126" r="4" fill="#f5a524" opacity="0.6"/>
  <circle cx="450" cy="178" r="3" fill="#ff3b6b" opacity="0.55"/>
  <circle cx="1038" cy="238" r="3" fill="#b14bff" opacity="0.55"/>
</svg>