<svg viewBox="0 0 1200 630" xmlns="http://www.w3.org/2000/svg">
  <defs>
    <linearGradient id="g0" x1="0" y1="0" x2="0" y2="1">
      <stop offset="0" stop-color="#06070e"/>
      <stop offset="1" stop-color="#101426"/>
    </linearGradient>
    <linearGradient id="g1" x1="0" y1="0" x2="1" y2="0">
      <stop offset="0" stop-color="#ff3b6b" stop-opacity="0.95"/>
      <stop offset="1" stop-color="#b14bff" stop-opacity="0.75"/>
    </linearGradient>
    <linearGradient id="g2" x1="0" y1="1" x2="1" y2="0">
      <stop offset="0" stop-color="#00e5ff" stop-opacity="0.22"/>
      <stop offset="1" stop-color="#1bf0a8" stop-opacity="0.45"/>
    </linearGradient>
    <radialGradient id="r0" cx="0.72" cy="0.34" r="0.5">
      <stop offset="0" stop-color="#00e5ff" stop-opacity="0.3"/>
      <stop offset="1" stop-color="#06070e" stop-opacity="0"/>
    </radialGradient>
    <filter id="blur">
      <feGaussianBlur stdDeviation="8"/>
    </filter>
  </defs>
  <rect width="1200" height="630" fill="url(#g0)"/>
  <circle cx="880" cy="200" r="260" fill="url(#r0)"/>
  <polygon points="70,420 1110,350 1140,630 40,630" fill="#07111f"/>
  <path d="M0 455 C140 420 240 490 370 455 C520 415 650 500 790 455 C930 410 1040 470 1200 430 L1200 630 L0 630 Z" fill="#081a2c" opacity="0.95"/>
  <path d="M0 505 C155 465 270 545 410 505 C560 462 700 548 850 506 C1000 465 1105 520 1200 493 L1200 630 L0 630 Z" fill="#0b2639" opacity="0.86"/>
  <path d="M0 565 C155 520 300 590 455 552 C610 514 745 592 905 552 C1040 520 1120 555 1200 535 L1200 630 L0 630 Z" fill="#12314a" opacity="0.72"/>
  <polygon points="250,145 820,105 910,430 170,480" fill="#11172a" stroke="#00e5ff" stroke-opacity="0.25" stroke-width="5"/>
  <polygon points="280,175 790,142 858,398 205,441" fill="#07101d" stroke="#ff3b6b" stroke-opacity="0.35" stroke-width="3"/>
  <polygon points="315,205 465,195 486,414 290,427" fill="#111c30" opacity="0.92"/>
  <polygon points="505,190 655,181 704,400 522,412" fill="#101a2d" opacity="0.94"/>
  <polygon points="695,176 770,171 833,390 730,397" fill="#10182a" opacity="0.94"/>
  <polygon points="330,224 453,216 467,260 322,269" fill="#ff3b6b" opacity="0.66"/>
  <polygon points="342,288 471,279 480,318 335,327" fill="#b14bff" opacity="0.38"/>
  <polygon points="352,350 482,341 487,389 345,398" fill="#00e5ff" opacity="0.24"/>
  <polygon points="525,211 638,205 652,252 515,260" fill="#ff3b6b" opacity="0.7"/>
  <polygon points="542,278 668,270 680,313 532,322" fill="#ff3b6b" opacity="0.48"/>
  <polygon points="558,343 690,335 700,382 548,392" fill="#b14bff" opacity="0.35"/>
  <polygon points="710,199 762,196 777,242 702,247" fill="#ff3b6b" opacity="0.68"/>
  <polygon points="725,267 790,263 804,307 716,313" fill="#ff3b6b" opacity="0.52"/>
  <polygon points="741,333 816,328 828,374 732,381" fill="#00e5ff" opacity="0.22"/>
  <path d="M182 482 C280 444 395 454 525 432 C665 409 780 403 908 430" fill="none" stroke="#00e5ff" stroke-opacity="0.28" stroke-width="5"/>
  <path d="M170 500 C300 463 430 475 555 450 C700 420 805 421 925 452" fill="none" stroke="#ff3b6b" stroke-opacity="0.32" stroke-width="4"/>
  <rect x="142" y="487" width="82" height="28" rx="8" fill="#16223a" opacity="0.88"/>
  <rect x="245" y="472" width="74" height="25" rx="8" fill="#182842" opacity="0.8"/>
  <rect x="355" y="456" width="91" height="28" rx="8" fill="#151f37" opacity="0.86"/>
  <rect x="560" y="432" width="86" height="27" rx="8" fill="#17233c" opacity="0.84"/>
  <rect x="714" y="421" width="94" height="29" rx="8" fill="#17233c" opacity="0.82"/>
  <rect x="830" y="440" width="70" height="25" rx="8" fill="#152139" opacity="0.82"/>
  <circle cx="185" cy="480" r="13" fill="#ff3b6b" opacity="0.75"/>
  <circle cx="280" cy="466" r="10" fill="#ff3b6b" opacity="0.65"/>
  <circle cx="610" cy="426" r="12" fill="#ff3b6b" opacity="0.72"/>
  <circle cx="765" cy="416" r="10" fill="#b14bff" opacity="0.74"/>
  <ellipse cx="980" cy="500" rx="58" ry="17" fill="#1bf0a8" opacity="0.32" filter="url(#blur)"/>
  <ellipse cx="980" cy="494" rx="42" ry="10" fill="#1bf0a8" opacity="0.85"/>
  <ellipse cx="1038" cy="455" rx="45" ry="14" fill="#f5a524" opacity="0.22" filter="url(#blur)"/>
  <ellipse cx="1038" cy="450" rx="31" ry="8" fill="#f5a524" opacity="0.75"/>
  <ellipse cx="1088" cy="535" rx="52" ry="15" fill="#00e5ff" opacity="0.24" filter="url(#blur)"/>
  <ellipse cx="1088" cy="529" rx="37" ry="9" fill="#00e5ff" opacity="0.72"/>
  <ellipse cx="92" cy="558" rx="48" ry="12" fill="#ff3b6b" opacity="0.28" filter="url(#blur)"/>
  <ellipse cx="92" cy="553" rx="32" ry="8" fill="#ff3b6b" opacity="0.67"/>
  <path d="M365 118 C420 70 505 70 560 112" fill="none" stroke="#b14bff" stroke-opacity="0.35" stroke-width="4"/>
  <path d="M595 100 C650 54 730 62 785 110" fill="none" stroke="#00e5ff" stroke-opacity="0.22" stroke-width="4"/>
  <circle cx="430" cy="94" r="4" fill="#b14bff" opacity="0.8"/>
  <circle cx="470" cy="82" r="3" fill="#b14bff" opacity="0.6"/>
  <circle cx="680" cy="78" r="4" fill="#00e5ff" opacity="0.55"/>
  <circle cx="725" cy="88" r="3" fill="#00e5ff" opacity="0.5"/>
  <path d="M920 140 C970 172 1010 215 1040 270 C1062 311 1084 345 1135 360" fill="none" stroke="url(#g2)" stroke-width="7" opacity="0.6"/>
  <path d="M82 345 C125 330 165 323 210 326" fill="none" stroke="url(#g1)" stroke-width="8" opacity="0.7"/>
  <path d="M88 372 C142 358 185 354 235 362" fill="none" stroke="#ff3b6b" stroke-width="5" opacity="0.42"/>
</svg>